<svg width="384" height="58" viewBox="0 0 384 58" fill="none" xmlns="http://www.w3.org/2000/svg">
<g clip-path="url(#clip0_304_2276)">
<path d="M50.4639 34.6154C51.2176 40.0472 49.7559 46.6254 45.3528 51.4716C39.7619 57.6262 32.2161 57.9071 30.1566 57.9841C28.4098 58.0498 22.0307 58.0952 15.9511 53.7497C12.8272 51.5158 10.9981 48.9919 10.1809 47.7446C8.92739 45.8291 5.83581 40.4652 6.42028 33.512C7.29755 23.0765 15.7551 17.3819 16.8272 16.6852C16.4031 17.3875 15.6405 18.8625 15.5381 20.8777C15.3978 23.6203 16.569 25.5948 16.9942 26.245C17.4395 26.9258 18.6307 28.5412 20.8228 29.4916C21.2225 29.665 24.4232 30.9904 27.7563 29.4441C28.2629 29.2096 29.9116 28.3804 31.3444 26.2812C34.8624 21.127 31.2743 16.8166 34.2757 9.33211C35.5716 6.10019 37.2927 4.28203 37.8694 3.7043C40.0336 1.53496 42.3848 0.500703 43.8288 0C41.9462 5.23473 40.7439 11.6544 42.6409 18.1748C44.8496 25.7636 49.4386 27.2351 50.4628 34.6165L50.4639 34.6154Z" fill="url(#paint0_linear_304_2276)"/>
</g>
<path d="M81.7976 43.5V15.1364H100.245V19.4435H86.9357V27.1438H99.2894V31.451H86.9357V39.1928H100.356V43.5H81.7976ZM105.265 43.5V22.2273H110.057V25.842H110.307C110.75 24.6232 111.484 23.6722 112.509 22.989C113.534 22.2965 114.757 21.9503 116.179 21.9503C117.619 21.9503 118.833 22.3011 119.821 23.0028C120.818 23.6953 121.52 24.6417 121.926 25.842H122.148C122.619 24.6602 123.413 23.7184 124.53 23.0167C125.656 22.3058 126.991 21.9503 128.532 21.9503C130.49 21.9503 132.087 22.5689 133.324 23.8061C134.562 25.0433 135.18 26.8484 135.18 29.2212V43.5H130.153V29.9968C130.153 28.6765 129.802 27.7116 129.1 27.1023C128.399 26.4837 127.54 26.1744 126.524 26.1744C125.315 26.1744 124.368 26.5529 123.685 27.31C123.011 28.0579 122.674 29.032 122.674 30.2322V43.5H117.758V29.7891C117.758 28.6903 117.425 27.8132 116.76 27.1577C116.105 26.5021 115.246 26.1744 114.184 26.1744C113.464 26.1744 112.809 26.359 112.218 26.7283C111.627 27.0884 111.156 27.6009 110.805 28.2656C110.454 28.9212 110.279 29.6875 110.279 30.5646V43.5H105.265ZM140.488 43.5V15.1364H145.502V25.745H145.709C145.968 25.228 146.332 24.6786 146.803 24.0969C147.274 23.506 147.911 23.0028 148.715 22.5874C149.518 22.1626 150.543 21.9503 151.789 21.9503C153.433 21.9503 154.915 22.3704 156.235 23.2106C157.564 24.0415 158.617 25.2741 159.392 26.9084C160.177 28.5334 160.57 30.5277 160.57 32.8913C160.57 35.2273 160.187 37.2124 159.42 38.8466C158.654 40.4808 157.611 41.7273 156.29 42.5859C154.97 43.4446 153.474 43.8739 151.803 43.8739C150.584 43.8739 149.573 43.6708 148.77 43.2646C147.967 42.8583 147.32 42.369 146.831 41.7965C146.351 41.2148 145.977 40.6655 145.709 40.1484H145.418V43.5H140.488ZM145.405 32.8636C145.405 34.2393 145.598 35.4442 145.986 36.4783C146.383 37.5124 146.951 38.3203 147.69 38.902C148.438 39.4744 149.342 39.7607 150.404 39.7607C151.512 39.7607 152.44 39.4652 153.188 38.8743C153.936 38.2741 154.499 37.457 154.878 36.4229C155.265 35.3796 155.459 34.1932 155.459 32.8636C155.459 31.5433 155.27 30.3707 154.891 29.3459C154.513 28.321 153.95 27.5178 153.202 26.9361C152.454 26.3544 151.521 26.0636 150.404 26.0636C149.333 26.0636 148.424 26.3452 147.676 26.9084C146.928 27.4716 146.36 28.261 145.972 29.2766C145.594 30.2923 145.405 31.4879 145.405 32.8636ZM174.249 43.9155C172.117 43.9155 170.275 43.4723 168.724 42.5859C167.182 41.6903 165.995 40.4254 165.164 38.7912C164.333 37.1477 163.918 35.2134 163.918 32.9883C163.918 30.8001 164.333 28.8796 165.164 27.2269C166.004 25.565 167.177 24.2724 168.682 23.3491C170.187 22.4165 171.955 21.9503 173.986 21.9503C175.297 21.9503 176.535 22.1626 177.698 22.5874C178.871 23.0028 179.905 23.6491 180.8 24.5263C181.705 25.4034 182.416 26.5206 182.933 27.8778C183.45 29.2259 183.709 30.8324 183.709 32.6974V34.2347H166.272V30.8555H178.903C178.894 29.8952 178.686 29.0412 178.28 28.2933C177.873 27.5362 177.306 26.9407 176.576 26.5067C175.856 26.0728 175.016 25.8558 174.056 25.8558C173.031 25.8558 172.131 26.1051 171.355 26.6037C170.579 27.093 169.975 27.7393 169.541 28.5426C169.116 29.3366 168.899 30.2092 168.89 31.1602V34.1101C168.89 35.3473 169.116 36.4091 169.568 37.2955C170.021 38.1726 170.653 38.8466 171.466 39.3175C172.278 39.7791 173.229 40.0099 174.319 40.0099C175.048 40.0099 175.708 39.9084 176.299 39.7053C176.89 39.4929 177.403 39.1836 177.836 38.7773C178.27 38.3711 178.598 37.8679 178.82 37.2678L183.501 37.794C183.205 39.0312 182.642 40.1115 181.811 41.0348C180.99 41.9489 179.937 42.6598 178.654 43.1676C177.37 43.6662 175.902 43.9155 174.249 43.9155ZM187.95 43.5V22.2273H192.811V25.7727H193.033C193.421 24.5447 194.085 23.5984 195.027 22.9336C195.978 22.2596 197.063 21.9226 198.282 21.9226C198.559 21.9226 198.868 21.9364 199.21 21.9641C199.56 21.9826 199.851 22.0149 200.082 22.0611V26.6729C199.87 26.5991 199.533 26.5344 199.071 26.479C198.619 26.4144 198.18 26.3821 197.755 26.3821C196.841 26.3821 196.02 26.5806 195.29 26.9776C194.57 27.3654 194.002 27.9055 193.587 28.598C193.171 29.2905 192.964 30.0891 192.964 30.994V43.5H187.95Z" fill="white"/>
<defs>
<linearGradient id="paint0_linear_304_2276" x1="28.5" y1="58" x2="28.5" y2="0" gradientUnits="userSpaceOnUse">
<stop stop-color="#2438E7"/>
<stop offset="1" stop-color="#71C0ED"/>
</linearGradient>
<clipPath id="clip0_304_2276">
<rect width="57" height="58" fill="white"/>
</clipPath>
</defs>
</svg>
