<svg width="57" height="58" viewBox="0 0 57 58" fill="none" xmlns="http://www.w3.org/2000/svg">
<g clip-path="url(#clip0_304_2273)">
<path d="M50.4639 34.6154C51.2176 40.0472 49.7559 46.6254 45.3528 51.4716C39.7619 57.6262 32.2161 57.9071 30.1566 57.9841C28.4098 58.0498 22.0307 58.0952 15.9511 53.7497C12.8272 51.5158 10.9981 48.9919 10.1809 47.7446C8.92739 45.8291 5.83581 40.4652 6.42028 33.512C7.29755 23.0765 15.7551 17.3819 16.8272 16.6852C16.4031 17.3875 15.6405 18.8625 15.5381 20.8777C15.3978 23.6203 16.569 25.5948 16.9942 26.245C17.4395 26.9258 18.6307 28.5412 20.8228 29.4916C21.2225 29.665 24.4232 30.9904 27.7563 29.4441C28.2629 29.2096 29.9116 28.3804 31.3444 26.2812C34.8624 21.127 31.2743 16.8166 34.2757 9.33211C35.5716 6.10019 37.2927 4.28203 37.8694 3.7043C40.0336 1.53496 42.3848 0.500703 43.8288 0C41.9462 5.23473 40.7439 11.6544 42.6409 18.1748C44.8496 25.7636 49.4386 27.2351 50.4628 34.6165L50.4639 34.6154Z" fill="url(#paint0_linear_304_2273)"/>
</g>
<defs>
<linearGradient id="paint0_linear_304_2273" x1="28.5" y1="58" x2="28.5" y2="0" gradientUnits="userSpaceOnUse">
<stop stop-color="#2438E7"/>
<stop offset="1" stop-color="#71C0ED"/>
</linearGradient>
<clipPath id="clip0_304_2273">
<rect width="57" height="58" fill="white"/>
</clipPath>
</defs>
</svg>
